<svg width="25" height="22" viewBox="0 0 25 22" fill="none" xmlns="http://www.w3.org/2000/svg">
<path d="M10.5769 0C9.525 0 8.65385 0.866609 8.65385 1.91304V2.86957H5.76923V1.91304H3.84615V2.86957H1.92308C0.871154 2.86957 0 3.73617 0 4.78261V20.087C0 21.1334 0.871154 22 1.92308 22H23.0769C24.1288 22 25 21.1334 25 20.087V4.78261C25 3.73617 24.1288 2.86957 23.0769 2.86957H21.1538V1.91304H19.2308V2.86957H16.3462V1.91304C16.3462 0.866609 15.475 0 14.4231 0H10.5769ZM10.5769 1.91304H14.4231V2.86957H10.5769V1.91304ZM1.92308 4.78261H23.0769V20.087H21.1538V5.73913H19.2308V20.087H5.76923V5.73913H3.84615V20.087H1.92308V4.78261Z" fill="#9D9D9D"/>
</svg>
