<svg width="30" height="22" viewBox="0 0 30 22" fill="none" xmlns="http://www.w3.org/2000/svg">
<path d="M24.8713 1.77295C23.0543 0.953541 21.1066 0.347892 19.0699 0.00350346C19.0518 2.14731e-05 19.033 0.00226539 19.0162 0.00992492C18.9994 0.0175845 18.9854 0.0302806 18.9761 0.0462552C18.7267 0.48446 18.4488 1.05567 18.254 1.50694C16.0939 1.18421 13.8978 1.18421 11.7377 1.50694C11.5208 1.00681 11.2762 0.519165 11.005 0.0462552C10.9958 0.030084 10.9819 0.0171006 10.9651 0.00903758C10.9483 0.000974578 10.9295 -0.00178466 10.9112 0.00112826C8.87562 0.345517 6.92797 0.951166 5.10977 1.77176C5.09413 1.77832 5.08087 1.78951 5.07177 1.80382C1.37599 7.23685 0.362974 12.5357 0.860574 17.768C0.861959 17.7808 0.865936 17.7932 0.872266 17.8045C0.878595 17.8157 0.887143 17.8255 0.897389 17.8333C3.05452 19.4038 5.46051 20.6001 8.01462 21.3722C8.03242 21.3777 8.05147 21.3777 8.06926 21.3722C8.08706 21.3667 8.10278 21.3559 8.11438 21.3413C8.66399 20.6063 9.15102 19.8266 9.57036 19.0102C9.57618 18.999 9.57954 18.9867 9.5802 18.9742C9.58086 18.9616 9.57881 18.949 9.57419 18.9373C9.56958 18.9256 9.5625 18.915 9.55344 18.9063C9.54438 18.8976 9.53354 18.8909 9.52167 18.8867C8.75449 18.5978 8.01116 18.2492 7.2985 17.844C7.2857 17.8367 7.27491 17.8263 7.2671 17.8138C7.25929 17.8013 7.25471 17.7871 7.25377 17.7724C7.25283 17.7576 7.25555 17.7429 7.2617 17.7295C7.26785 17.7161 7.27723 17.7045 7.289 17.6956C7.43864 17.5851 7.58827 17.4699 7.73078 17.3547C7.74361 17.3444 7.75906 17.3378 7.77542 17.3357C7.79177 17.3336 7.80839 17.3361 7.82342 17.3429C12.4871 19.4377 17.5379 19.4377 22.1469 17.3429C22.162 17.3357 22.1788 17.3329 22.1954 17.3348C22.212 17.3367 22.2277 17.3432 22.2408 17.3536C22.3833 17.4699 22.5317 17.5851 22.6825 17.6956C22.6944 17.7043 22.704 17.7158 22.7103 17.7291C22.7167 17.7424 22.7196 17.757 22.7189 17.7717C22.7182 17.7864 22.7139 17.8007 22.7063 17.8133C22.6987 17.826 22.6881 17.8365 22.6754 17.844C21.9652 18.2525 21.2266 18.5981 20.4511 18.8855C20.4392 18.8898 20.4283 18.8966 20.4192 18.9055C20.4102 18.9143 20.4031 18.925 20.3985 18.9368C20.3939 18.9486 20.3918 18.9613 20.3925 18.9739C20.3932 18.9866 20.3965 18.9989 20.4024 19.0102C20.8299 19.826 21.3192 20.6027 21.8572 21.3402C21.8684 21.3553 21.8839 21.3666 21.9018 21.3726C21.9196 21.3785 21.9389 21.3788 21.9569 21.3734C24.5154 20.6034 26.9253 19.4066 29.0848 17.8333C29.0954 17.826 29.1042 17.8164 29.1108 17.8054C29.1173 17.7943 29.1214 17.782 29.1228 17.7692C29.7166 11.7198 28.1276 6.46376 24.9081 1.8062C24.9002 1.79106 24.8871 1.77926 24.8713 1.77295ZM10.2675 14.5818C8.86375 14.5818 7.70584 13.3123 7.70584 11.7555C7.70584 10.1974 8.84118 8.9291 10.2675 8.9291C11.7045 8.9291 12.8517 10.2081 12.8291 11.7555C12.8291 13.3135 11.6938 14.5818 10.2675 14.5818ZM19.7385 14.5818C18.3336 14.5818 17.1769 13.3123 17.1769 11.7555C17.1769 10.1974 18.311 8.9291 19.7385 8.9291C21.1755 8.9291 22.3227 10.2081 22.3001 11.7555C22.3001 13.3135 21.1767 14.5818 19.7385 14.5818Z" fill="#3B3B3B" fill-opacity="0.7"/>
</svg>
