<svg width="387" height="358" viewBox="0 0 387 358" fill="none" xmlns="http://www.w3.org/2000/svg">
<g opacity="0.5">
<g opacity="0.5">
<path opacity="0.5" d="M383.085 116.438C383.085 116.243 382.891 116.243 382.891 116.049C382.891 115.854 382.697 115.854 382.697 115.66C382.697 115.465 382.503 115.465 382.503 115.271C380.365 111.379 377.257 108.267 373.953 106.905L372.982 106.516L253.683 54.3744L134.385 2.23331L133.413 1.8442C129.916 0.287747 126.613 0.67686 124.087 2.42787C124.087 2.42787 123.893 2.42787 123.893 2.62243C123.893 2.62243 123.698 2.62242 123.698 2.81698L109.903 12.9339L118.841 15.6577L106.989 175.972C106.6 180.058 107.766 184.533 110.098 188.424C110.098 188.618 110.292 188.618 110.292 188.813C110.292 189.008 110.486 189.008 110.486 189.202C112.624 193.093 115.732 196.206 119.035 197.763L356.855 301.461L355.884 311.578L368.902 301.85C368.902 301.85 369.096 301.85 369.096 301.656C371.622 299.905 373.371 296.792 373.759 292.706L386 128.5C386.194 124.415 385.223 120.135 383.085 116.438Z" fill="white"/>
<g opacity="0.5">
<path opacity="0.5" d="M345.975 312.55L105.435 207.49C98.2455 204.377 92.8052 194.26 93.5824 184.921L105.629 23.0501C106.406 13.7114 112.818 8.84752 120.007 11.9604L360.547 117.021C367.542 120.134 372.982 130.251 372.205 139.589L360.158 301.46C359.575 310.799 353.164 315.858 345.975 312.55Z" fill="url(#paint0_linear_2_210)"/>
<path opacity="0.5" d="M359.381 116.631L240.083 64.4902L226.093 254.766L345.003 312.161C352.775 315.663 359.77 311.382 360.353 302.627L372.399 138.422C372.982 129.861 367.153 119.939 359.381 116.631Z" fill="url(#paint1_linear_2_210)"/>
<path opacity="0.5" d="M120.784 12.3503L240.083 64.4914L226.093 253.6L106.406 208.074C98.634 204.572 92.8051 194.844 93.388 186.284L105.434 22.0781C106.017 13.323 113.012 9.04281 120.784 12.3503Z" fill="url(#paint2_linear_2_210)"/>
<path opacity="0.5" d="M96.1082 198.152C98.4398 202.626 102.131 206.323 106.406 208.074L345.003 312.162C349.278 313.913 353.164 313.524 356.078 311.383L234.642 137.645L96.1082 198.152Z" fill="url(#paint3_linear_2_210)"/>
<path opacity="0.5" d="M369.679 126.554C367.347 122.079 363.656 118.383 359.381 116.632L120.784 12.5441C116.51 10.7931 112.624 11.1822 109.709 13.3223L230.951 187.061L369.679 126.554Z" fill="url(#paint4_linear_2_210)"/>
</g>
</g>
<g opacity="0.5">
<path opacity="0.5" d="M318.384 147.761C318.384 147.566 318.19 147.372 318.19 147.372C318.19 147.177 317.996 147.177 317.996 146.983C317.996 146.788 317.802 146.788 317.802 146.593C315.859 142.313 312.75 138.617 309.252 136.866L308.281 136.282L184.125 70.5219L59.969 4.76186L58.9975 4.17819C55.3058 2.23262 51.8085 2.42718 48.894 4.17819C48.894 4.17819 48.6997 4.17819 48.6997 4.37275C48.6997 4.37275 48.5055 4.37275 48.5055 4.5673L32.7674 14.4897L42.0937 17.9917L16.2521 189.59C15.6692 194.065 16.4464 198.929 18.5836 203.209C18.5836 203.404 18.778 203.404 18.778 203.599C18.778 203.793 18.9723 203.793 18.9723 203.988C20.9153 208.268 24.024 211.964 27.5213 213.715L275.056 344.457L273.307 355.158L288.268 345.819C288.268 345.819 288.463 345.819 288.463 345.625C291.377 343.874 293.514 340.761 294.097 336.286L320.327 160.796C320.91 156.516 320.133 151.847 318.384 147.761Z" fill="white"/>
<g opacity="0.5">
<path opacity="0.5" d="M262.233 355.742L11.9777 223.054C4.40009 218.969 -0.457336 207.684 0.90274 197.762L26.9386 24.6066C28.493 14.6842 35.8763 9.82033 43.2596 13.906L293.709 146.399C301.286 150.485 306.144 161.769 304.784 171.691L278.748 344.847C277.194 354.963 269.81 359.633 262.233 355.742Z" fill="url(#paint5_linear_2_210)"/>
<path opacity="0.5" d="M292.737 145.816L168.581 80.0556L137.882 283.562L261.067 354.964C269.227 359.244 276.999 355.159 278.359 346.014L304.978 170.524C306.338 161.186 300.898 150.291 292.737 145.816Z" fill="url(#paint6_linear_2_210)"/>
<path opacity="0.5" d="M44.4253 14.2953L168.581 80.0554L138.077 282.394L12.9491 223.638C4.78865 219.358 -0.651672 208.268 0.708405 199.124L27.1329 23.4395C28.6872 14.1007 36.4591 10.0151 44.4253 14.2953Z" fill="url(#paint7_linear_2_210)"/>
<path opacity="0.5" d="M2.84564 211.965C4.98291 216.829 8.67459 221.109 12.9491 223.444L261.261 355.159C265.73 357.493 270.005 357.299 273.113 355.353L156.729 158.462L2.84564 211.965Z" fill="url(#paint8_linear_2_210)"/>
<path opacity="0.5" d="M302.841 157.488C300.704 152.625 297.012 148.344 292.737 146.01L44.4254 14.4894C39.9565 12.1548 35.682 12.3493 32.5732 14.2949L148.957 210.991L302.841 157.488Z" fill="url(#paint9_linear_2_210)"/>
</g>
</g>
</g>
<defs>
<linearGradient id="paint0_linear_2_210" x1="99.3973" y1="104.024" x2="373.424" y2="124.268" gradientUnits="userSpaceOnUse">
<stop stop-color="#7BDAFF"/>
<stop offset="1" stop-color="#59BDEF"/>
</linearGradient>
<linearGradient id="paint1_linear_2_210" x1="415.142" y1="429.262" x2="249.94" y2="187.875" gradientUnits="userSpaceOnUse">
<stop offset="0.7677" stop-color="#59BDEF"/>
<stop offset="0.8452" stop-color="#55B8EB"/>
<stop offset="0.9318" stop-color="#49ABE1"/>
<stop offset="1" stop-color="#3A9BD5"/>
</linearGradient>
<linearGradient id="paint2_linear_2_210" x1="23.5283" y1="257.988" x2="204.246" y2="156.001" gradientUnits="userSpaceOnUse">
<stop offset="0.7677" stop-color="#59BDEF"/>
<stop offset="0.8452" stop-color="#55B8EB"/>
<stop offset="0.9318" stop-color="#49ABE1"/>
<stop offset="1" stop-color="#3A9BD5"/>
</linearGradient>
<linearGradient id="paint3_linear_2_210" x1="211.281" y1="454.275" x2="320.343" y2="204.506" gradientUnits="userSpaceOnUse">
<stop offset="0.7677" stop-color="#3A9BD5"/>
<stop offset="0.8386" stop-color="#3896D2"/>
<stop offset="0.9179" stop-color="#3189C9"/>
<stop offset="1" stop-color="#2573BA"/>
</linearGradient>
<linearGradient id="paint4_linear_2_210" x1="153.963" y1="-15.5782" x2="427.472" y2="147.289" gradientUnits="userSpaceOnUse">
<stop stop-color="#7BDAFF"/>
<stop offset="1" stop-color="#59BDEF"/>
</linearGradient>
<linearGradient id="paint5_linear_2_210" x1="14.038" y1="111.148" x2="307.225" y2="155.227" gradientUnits="userSpaceOnUse">
<stop stop-color="#7BDAFF"/>
<stop offset="1" stop-color="#59BDEF"/>
</linearGradient>
<linearGradient id="paint6_linear_2_210" x1="327.279" y1="486.837" x2="169.197" y2="213.642" gradientUnits="userSpaceOnUse">
<stop offset="0.7677" stop-color="#59BDEF"/>
<stop offset="0.8452" stop-color="#55B8EB"/>
<stop offset="0.9318" stop-color="#49ABE1"/>
<stop offset="1" stop-color="#3A9BD5"/>
</linearGradient>
<linearGradient id="paint7_linear_2_210" x1="-80.115" y1="270.614" x2="122.607" y2="175.61" gradientUnits="userSpaceOnUse">
<stop offset="0.7677" stop-color="#59BDEF"/>
<stop offset="0.8452" stop-color="#55B8EB"/>
<stop offset="0.9318" stop-color="#49ABE1"/>
<stop offset="1" stop-color="#3A9BD5"/>
</linearGradient>
<linearGradient id="paint8_linear_2_210" x1="105.914" y1="497.116" x2="243.614" y2="237.305" gradientUnits="userSpaceOnUse">
<stop offset="0.7677" stop-color="#3A9BD5"/>
<stop offset="0.8386" stop-color="#3896D2"/>
<stop offset="0.9179" stop-color="#3189C9"/>
<stop offset="1" stop-color="#2573BA"/>
</linearGradient>
<linearGradient id="paint9_linear_2_210" x1="82.4789" y1="-13.0818" x2="363.516" y2="184.433" gradientUnits="userSpaceOnUse">
<stop stop-color="#7BDAFF"/>
<stop offset="1" stop-color="#59BDEF"/>
</linearGradient>
</defs>
</svg>
