<svg width="343" height="387" viewBox="0 0 343 387" fill="none" xmlns="http://www.w3.org/2000/svg">
<path d="M340.798 164.984C340.798 164.789 340.603 164.595 340.603 164.4C340.603 164.206 340.409 164.206 340.409 164.011C340.409 163.816 340.215 163.816 340.215 163.622C338.272 158.953 335.163 155.061 331.471 152.921L330.5 152.338L200.903 77.4334L71.3071 2.52918L70.3356 1.94551C66.644 -0.194606 62.758 -0.194606 59.6493 1.36185C59.6493 1.36185 59.455 1.36185 59.455 1.5564C59.455 1.5564 59.2607 1.5564 59.2607 1.75096L42.1625 11.6733L51.4888 15.5645L17.2924 197.28C16.321 201.95 17.0981 207.203 19.2354 211.872C19.2354 212.066 19.4297 212.066 19.4297 212.261C19.4297 212.456 19.624 212.456 19.624 212.65C21.567 217.32 24.6758 221.211 28.3674 223.351L286.783 372.965L284.451 384.444L300.578 375.105C300.578 375.105 300.772 375.105 300.772 374.91C303.881 373.159 306.407 369.852 307.184 365.182L342.352 178.992C343.129 174.517 342.546 169.459 340.798 164.984Z" fill="white"/>
<path d="M272.793 384.249L11.4634 233.078C3.49719 228.604 -1.16592 216.152 0.777039 205.646L35.362 22.1792C37.3049 11.6732 45.4654 6.80926 53.2373 11.2841L314.567 162.649C322.533 167.124 327.197 179.575 325.254 190.081L290.669 373.548C288.726 384.054 280.76 388.918 272.793 384.249Z" fill="url(#paint0_linear_2_227)"/>
<path d="M313.596 162.065L183.999 87.1611L143.391 302.73L271.822 383.665C280.371 388.529 288.726 384.638 290.474 374.715L325.448 188.72C327.391 178.797 321.951 166.929 313.596 162.065Z" fill="url(#paint1_linear_2_227)"/>
<path d="M54.2088 12.0627L183.805 86.967L143.391 301.174L12.4348 233.663C3.88574 228.799 -1.36029 216.736 0.388397 207.008L35.3619 20.8178C37.3049 11.0899 45.6597 7.19881 54.2088 12.0627Z" fill="url(#paint2_linear_2_227)"/>
<path d="M2.13708 221.016C4.27435 226.269 7.96597 231.133 12.4348 233.662L271.628 383.665C276.291 386.389 280.759 386.389 284.257 384.249L168.067 169.848L2.13708 221.016Z" fill="url(#paint3_linear_2_227)"/>
<path d="M323.894 174.711C321.756 169.458 318.065 164.594 313.596 162.065L54.2088 12.0618C49.5457 9.33805 45.0768 9.33805 41.5795 11.4782L118.5 250L323.894 174.711Z" fill="url(#paint4_linear_2_227)"/>
<defs>
<linearGradient id="paint0_linear_2_227" x1="17.9739" y1="114.011" x2="328.589" y2="172.525" gradientUnits="userSpaceOnUse">
<stop stop-color="#7BDAFF"/>
<stop offset="1" stop-color="#59BDEF"/>
</linearGradient>
<linearGradient id="paint1_linear_2_227" x1="336.888" y1="526.61" x2="179.252" y2="229.314" gradientUnits="userSpaceOnUse">
<stop offset="0.7677" stop-color="#59BDEF"/>
<stop offset="0.8452" stop-color="#55B8EB"/>
<stop offset="0.9318" stop-color="#49ABE1"/>
<stop offset="1" stop-color="#3A9BD5"/>
</linearGradient>
<linearGradient id="paint2_linear_2_227" x1="-88.61" y1="280.175" x2="131.091" y2="186.955" gradientUnits="userSpaceOnUse">
<stop offset="0.7677" stop-color="#59BDEF"/>
<stop offset="0.8452" stop-color="#55B8EB"/>
<stop offset="0.9318" stop-color="#49ABE1"/>
<stop offset="1" stop-color="#3A9BD5"/>
</linearGradient>
<linearGradient id="paint3_linear_2_227" x1="100.652" y1="528.819" x2="257.589" y2="257.472" gradientUnits="userSpaceOnUse">
<stop offset="0.7677" stop-color="#3A9BD5"/>
<stop offset="0.8386" stop-color="#3896D2"/>
<stop offset="0.9179" stop-color="#3189C9"/>
<stop offset="1" stop-color="#2573BA"/>
</linearGradient>
<linearGradient id="paint4_linear_2_227" x1="95.7791" y1="-15.6386" x2="387.401" y2="205.874" gradientUnits="userSpaceOnUse">
<stop stop-color="#7BDAFF"/>
<stop offset="1" stop-color="#59BDEF"/>
</linearGradient>
</defs>
</svg>
