<svg width="102" height="102" viewBox="0 0 102 102" fill="none" xmlns="http://www.w3.org/2000/svg">
<path d="M51 32.9375C48.3941 32.9375 45.879 33.4808 43.5246 34.5525C42.857 34.8564 42.5622 35.644 42.866 36.3115C43.1699 36.9791 43.9574 37.2738 44.625 36.9701C46.6315 36.0567 48.7763 35.5938 51 35.5938C59.495 35.5938 66.4062 42.5049 66.4062 51C66.4062 59.4951 59.495 66.4062 51 66.4062C42.505 66.4062 35.5938 59.4951 35.5938 51C35.5938 48.5196 36.1647 46.1521 37.2908 43.9631C37.6264 43.3108 37.3696 42.51 36.7173 42.1745C36.0652 41.8387 35.2642 42.0957 34.9288 42.748C33.6261 45.2804 32.9375 48.1339 32.9375 51C32.9375 60.9596 41.0403 69.0625 51 69.0625C60.9597 69.0625 69.0625 60.9596 69.0625 51C69.0625 41.0404 60.9597 32.9375 51 32.9375Z" fill="#336FAA"/>
<path d="M84.0824 49.2304C83.6974 48.7004 83.0458 47.8351 82.1286 46.723C80.6143 44.887 78.1458 42.1062 74.9863 39.2851C71.4762 36.151 67.8858 33.6486 64.3146 31.8472C59.8084 29.5744 55.3286 28.4219 51 28.4219C41.2161 28.4219 32.5567 34.3016 27.0153 39.2337C23.8341 42.0653 21.3739 44.8396 19.8701 46.6685C18.9359 47.8045 18.2896 48.6721 17.9119 49.1999C17.1073 50.3242 17 50.5799 17 51C17 51.4404 17.1201 51.672 17.9176 52.7696C18.3026 53.2996 18.9542 54.1649 19.8714 55.277C21.3857 57.113 23.8542 59.8938 27.0137 62.7149C30.5238 65.849 34.1142 68.3514 37.6854 70.1528C42.1916 72.4256 46.6714 73.5781 51 73.5781C57.7729 73.5781 64.7709 70.8301 71.7995 65.4102C72.3804 64.9623 72.4883 64.1284 72.0403 63.5475C71.5926 62.9665 70.7585 62.8587 70.1776 63.3067C63.6245 68.3598 57.1722 70.9219 51 70.9219C42.2619 70.9219 34.3462 65.6033 29.2445 61.1416C24.4052 56.9092 21.0331 52.5741 19.9028 50.9847C20.9946 49.423 24.3432 45.0744 29.2833 40.7762C34.3683 36.352 42.2636 31.0781 51 31.0781C59.7381 31.0781 67.6538 36.3967 72.7555 40.8586C77.5969 45.0926 80.9699 49.4299 82.0988 51.0175C81.3493 52.0922 79.5588 54.4327 76.974 57.1466C76.4681 57.6777 76.4886 58.5182 77.0197 59.0243C77.5508 59.53 78.3914 59.5096 78.8974 58.9784C80.8693 56.9082 82.3321 55.1148 83.2119 53.975C85 51.6586 85 51.368 85 51C85 50.5596 84.8799 50.328 84.0824 49.2304Z" fill="#336FAA"/>
<path d="M60.8414 46.3334C60.6018 45.8289 60.0723 45.528 59.5159 45.581C58.9599 45.6338 58.4963 46.029 58.3561 46.5696C58.0832 47.6224 57.1316 48.3576 56.042 48.3576C54.7238 48.3576 53.6513 47.2851 53.6513 45.9669C53.6513 44.8752 54.3882 43.9231 55.4432 43.6516C55.9842 43.5124 56.3802 43.0496 56.4342 42.4935C56.4881 41.9377 56.1883 41.4074 55.6842 41.1667C54.2137 40.4652 52.6377 40.1094 51 40.1094C44.9949 40.1094 40.1094 44.9949 40.1094 51C40.1094 57.0051 44.9949 61.8906 51 61.8906C57.0051 61.8906 61.8906 57.0051 61.8906 51.0001C61.8906 49.3696 61.5376 47.7995 60.8414 46.3334ZM51 59.2344C46.4595 59.2344 42.7656 55.5405 42.7656 51C42.7656 46.4595 46.4595 42.7656 51 42.7656C51.3652 42.7656 51.7262 42.789 52.0824 42.8355C51.396 43.7039 50.9951 44.7974 50.9951 45.9668C50.9951 48.7496 53.2591 51.0137 56.042 51.0137C57.2075 51.0137 58.2986 50.6147 59.1662 49.9313C59.2117 50.2831 59.2344 50.6395 59.2344 51C59.2344 55.5405 55.5405 59.2344 51 59.2344Z" fill="#336FAA"/>
<path d="M51 17C50.2665 17 49.6719 17.5947 49.6719 18.3281V25.5C49.6719 26.2334 50.2665 26.8281 51 26.8281C51.7335 26.8281 52.3281 26.2334 52.3281 25.5V18.3281C52.3281 17.5947 51.7335 17 51 17Z" fill="#336FAA"/>
<path d="M73.7557 20.9089C73.2371 20.3904 72.3961 20.3904 71.8775 20.9089L65.5846 27.202C65.0658 27.7207 65.0659 28.5617 65.5846 29.0803C65.844 29.3396 66.1838 29.4693 66.5237 29.4693C66.8636 29.4693 67.2036 29.3396 67.4628 29.0803L73.7557 22.7873C74.2744 22.2685 74.2744 21.4275 73.7557 20.9089Z" fill="#336FAA"/>
<path d="M36.4154 27.2019L30.1224 20.9088C29.6037 20.3905 28.7628 20.3903 28.2442 20.9088C27.7256 21.4276 27.7256 22.2686 28.2442 22.7872L34.5373 29.0803C34.7966 29.3395 35.1364 29.4693 35.4764 29.4693C35.8162 29.4693 36.1561 29.3395 36.4154 29.0803C36.934 28.5615 36.934 27.7205 36.4154 27.2019Z" fill="#336FAA"/>
<path d="M51 75.1719C50.2665 75.1719 49.6719 75.7666 49.6719 76.5V83.6719C49.6719 84.4053 50.2665 85 51 85C51.7335 85 52.3281 84.4053 52.3281 83.6719V76.5C52.3281 75.7666 51.7335 75.1719 51 75.1719Z" fill="#336FAA"/>
<path d="M36.4154 72.9196C35.8967 72.4011 35.0558 72.4011 34.5371 72.9196L28.2442 79.2127C27.7256 79.7315 27.7256 80.5724 28.2442 81.0911C28.5036 81.3503 28.8434 81.4801 29.1833 81.4801C29.5232 81.4801 29.8632 81.3503 30.1224 81.0911L36.4154 74.798C36.9341 74.2792 36.934 73.4383 36.4154 72.9196Z" fill="#336FAA"/>
<path d="M73.7559 79.2131L67.463 72.9201C66.9442 72.4017 66.1034 72.4016 65.5848 72.9201C65.0661 73.4388 65.0661 74.2798 65.5848 74.7984L71.8777 81.0915C72.1371 81.3507 72.4768 81.4805 72.8168 81.4805C73.1567 81.4805 73.4965 81.3507 73.7559 81.0915C74.2746 80.5727 74.2746 79.7318 73.7559 79.2131Z" fill="#336FAA"/>
<path d="M40.4229 37.9194C40.1758 37.6722 39.8332 37.5303 39.4839 37.5303C39.1346 37.5303 38.7919 37.6724 38.5449 37.9194C38.2979 38.1664 38.1558 38.5091 38.1558 38.8584C38.1558 39.2077 38.2979 39.5504 38.5449 39.7973C38.7919 40.0444 39.1346 40.1865 39.4839 40.1865C39.8332 40.1865 40.1758 40.0444 40.4229 39.7973C40.6699 39.5504 40.812 39.2077 40.812 38.8584C40.812 38.5091 40.6699 38.1666 40.4229 37.9194Z" fill="#336FAA"/>
<path d="M75.5479 60.3776C75.3008 60.1307 74.9582 59.9897 74.6089 59.9897C74.2596 59.9897 73.9169 60.1307 73.6699 60.3776C73.4229 60.6259 73.2808 60.9672 73.2808 61.3179C73.2808 61.6672 73.4229 62.0085 73.6699 62.2569C73.9169 62.504 74.2596 62.646 74.6089 62.646C74.9582 62.646 75.3008 62.504 75.5479 62.2569C75.7949 62.0085 75.937 61.6672 75.937 61.3179C75.937 60.9672 75.7949 60.6246 75.5479 60.3776Z" fill="#336FAA"/>
</svg>
