<svg width="102" height="102" viewBox="0 0 102 102" fill="none" xmlns="http://www.w3.org/2000/svg">
<path d="M27.5436 72.5308L33.9375 75.7272V83.6719C33.9375 84.4054 34.5322 85 35.2656 85H49.3438C50.0771 85 50.6719 84.4054 50.6719 83.6719V65.5363C50.6719 61.4674 47.6194 58.0929 43.5809 57.688C43.5652 57.6837 37.9629 56.8091 35.3638 54.2098L32.3811 51.2284C31.3775 50.2246 30.0436 49.6719 28.625 49.6719V39.0469C28.625 36.1176 26.2418 33.7344 23.3125 33.7344C20.3832 33.7344 18 36.1176 18 39.0469V57.0881C18 63.6241 21.6919 69.6042 27.5436 72.5308ZM20.6562 39.0469C20.6562 37.5822 21.8478 36.3906 23.3125 36.3906C24.7772 36.3906 25.9688 37.5822 25.9688 39.0469V50.3839C24.349 51.3205 23.3125 53.0667 23.3125 54.9844C23.3125 56.4028 23.8653 57.7366 24.8689 58.7403L31.6703 65.543C32.1886 66.0616 33.0297 66.0619 33.5485 65.5431C34.0671 65.0245 34.0673 64.1836 33.5486 63.6649L26.7473 56.8621C26.2453 56.3602 25.9688 55.6933 25.9688 54.9844C25.9688 53.8603 26.6802 52.8535 27.7394 52.4794C27.7398 52.4793 27.7402 52.479 27.7406 52.4789H27.7407C28.6566 52.1543 29.7431 52.3469 30.5031 53.1068L33.4858 56.0883C36.5652 59.1676 43.2931 60.3264 43.3065 60.3301C45.9912 60.5992 48.0156 62.8374 48.0156 65.5363V82.3438H36.5938V74.9062C36.5938 74.4032 36.3094 73.9432 35.8596 73.7184L28.7316 70.155C23.7506 67.6639 20.6562 62.657 20.6562 57.0881V39.0469Z" fill="#336FAA"/>
<path d="M36.0625 49.6719H67.9375C68.6709 49.6719 69.2656 49.0773 69.2656 48.3438V18.3281C69.2656 17.5946 68.6709 17 67.9375 17H36.0625C35.3291 17 34.7344 17.5946 34.7344 18.3281V48.3438C34.7344 49.0773 35.3291 49.6719 36.0625 49.6719ZM48.0156 19.6562H55.9844V26.8139L52.5346 25.1066C52.16 24.9211 51.7196 24.9231 51.3467 25.1115L48.0156 26.7943V19.6562ZM37.3906 19.6562H45.3594V28.9531C45.3594 29.4144 45.5987 29.8427 45.9917 30.0844C46.3844 30.326 46.8748 30.3466 47.2864 30.1386L51.9517 27.7819L56.7235 30.1435C57.128 30.3438 57.6162 30.328 58.0131 30.0815C58.4033 29.8391 58.6406 29.4124 58.6406 28.9531V19.6562H66.6094V47.0156H37.3906V19.6562Z" fill="#336FAA"/>
<path d="M62.625 40.375H54.6562C53.9229 40.375 53.3281 40.9696 53.3281 41.7031C53.3281 42.4366 53.9229 43.0312 54.6562 43.0312H62.625C63.3584 43.0312 63.9531 42.4366 63.9531 41.7031C63.9531 40.9696 63.3584 40.375 62.625 40.375Z" fill="#336FAA"/>
<path d="M78.9609 70.6562C79.6944 70.6562 80.2891 70.0616 80.2891 69.3281C80.2891 68.5946 79.6944 68 78.9609 68C78.2274 68 77.6328 68.5946 77.6328 69.3281C77.6328 70.0616 78.2274 70.6562 78.9609 70.6562Z" fill="#336FAA"/>
<path d="M80.6875 33.7344C77.7582 33.7344 75.375 36.1176 75.375 39.0469V49.6719C73.9564 49.6719 72.6225 50.2246 71.6192 51.228L68.636 54.2099C67.0024 55.8437 62.8641 57.4422 60.5174 57.6774L60.4287 57.687C56.3806 58.0929 53.3281 61.4674 53.3281 65.5363V83.6719C53.3281 84.4054 53.9229 85 54.6562 85H68.7344C69.4678 85 70.0625 84.4054 70.0625 83.6719V75.7272L74.4095 73.5541C75.0654 73.226 75.3314 72.4284 75.0035 71.7721C74.6756 71.1163 73.8781 70.8502 73.2217 71.1781L68.1404 73.7181C67.6906 73.9432 67.4062 74.4032 67.4062 74.9062V82.3438H55.9844V65.5363C55.9844 62.8374 58.0088 60.5992 60.7031 60.329L60.7919 60.3195C63.6728 60.0306 68.4426 58.1597 70.5139 56.0884L73.4972 53.1065C74.2574 52.3463 75.345 52.1548 76.2593 52.4789H76.2594C76.2598 52.479 76.2602 52.4793 76.2606 52.4794C78.0896 53.1255 78.6402 55.4745 77.2528 56.8623L70.4515 63.665C69.9329 64.1838 69.933 65.0246 70.4516 65.5432C70.9701 66.0617 71.8112 66.0619 72.3299 65.5431L79.1312 58.7404C81.5865 56.2847 81.075 52.1438 78.0314 50.3839V39.0469C78.0314 37.5822 79.223 36.3906 80.6876 36.3906C82.1523 36.3906 83.3439 37.5822 83.3439 39.0469V57.0881C83.3439 59.5181 82.7307 61.9305 81.5704 64.0645C81.2199 64.7089 81.4583 65.5153 82.1029 65.8657C82.7472 66.2158 83.5537 65.9777 83.9041 65.3333C85.2752 62.8111 86 59.9599 86 57.0881V39.0469C86 36.1176 83.6168 33.7344 80.6875 33.7344Z" fill="#336FAA"/>
</svg>
