<svg width="22" height="22" viewBox="0 0 22 22" fill="none" xmlns="http://www.w3.org/2000/svg">
<path d="M11.3086 7.12423C9.3459 7.12423 7.74423 8.72593 7.74423 10.6886C7.74423 12.6513 9.3459 14.253 11.3086 14.253C13.2712 14.253 14.8729 12.6513 14.8729 10.6886C14.8729 8.72593 13.2712 7.12423 11.3086 7.12423ZM21.9989 10.6886C21.9989 9.21259 22.0122 7.74994 21.9293 6.27658C21.8464 4.56525 21.4561 3.04644 20.2047 1.79502C18.9506 0.540936 17.4345 0.153211 15.7232 0.0703183C14.2472 -0.0125745 12.7846 0.000795354 11.3112 0.000795354C9.83523 0.000795354 8.3726 -0.0125745 6.89927 0.0703183C5.18797 0.153211 3.66918 0.54361 2.41779 1.79502C1.16373 3.04911 0.776011 4.56525 0.69312 6.27658C0.610228 7.75261 0.623598 9.21527 0.623598 10.6886C0.623598 12.162 0.610228 13.6273 0.69312 15.1007C0.776011 16.812 1.1664 18.3308 2.41779 19.5822C3.67186 20.8363 5.18797 21.224 6.89927 21.3069C8.37527 21.3898 9.8379 21.3764 11.3112 21.3764C12.7872 21.3764 14.2499 21.3898 15.7232 21.3069C17.4345 21.224 18.9533 20.8336 20.2047 19.5822C21.4587 18.3281 21.8464 16.812 21.9293 15.1007C22.0149 13.6273 21.9989 12.1646 21.9989 10.6886ZM11.3086 16.1729C8.27366 16.1729 5.82436 13.7236 5.82436 10.6886C5.82436 7.65368 8.27366 5.20433 11.3086 5.20433C14.3434 5.20433 16.7927 7.65368 16.7927 10.6886C16.7927 13.7236 14.3434 16.1729 11.3086 16.1729ZM17.0174 6.26054C16.3088 6.26054 15.7366 5.68831 15.7366 4.97971C15.7366 4.27111 16.3088 3.69889 17.0174 3.69889C17.7259 3.69889 18.2982 4.27111 18.2982 4.97971C18.2984 5.14797 18.2654 5.31462 18.2011 5.47011C18.1368 5.62561 18.0425 5.76689 17.9235 5.88587C17.8045 6.00484 17.6632 6.09918 17.5077 6.16347C17.3523 6.22777 17.1856 6.26075 17.0174 6.26054Z" fill="#3B3B3B" fill-opacity="0.7"/>
</svg>
