<svg width="102" height="102" viewBox="0 0 102 102" fill="none" xmlns="http://www.w3.org/2000/svg">
<path d="M83.0888 37.8058C83.0887 37.8058 83.0887 37.8058 83.0886 37.8058L83.0865 37.8036L78.9555 37.2142C78.3748 37.1315 77.9712 36.5938 78.0539 36.0132C78.0935 35.7341 78.2426 35.4825 78.468 35.3133L81.8068 32.8093C82.2761 32.4574 82.3711 31.7918 82.0192 31.3225L78.1962 26.2251C77.8443 25.7559 77.1787 25.6608 76.7094 26.0128L73.3717 28.5168C72.9044 28.8714 72.2383 28.7801 71.8838 28.3128C71.7116 28.086 71.6378 27.7994 71.6789 27.5175L72.2694 23.3865C72.3526 22.8059 71.9495 22.2679 71.369 22.1845C71.3686 22.1845 71.3682 22.1844 71.3678 22.1844L65.064 21.2839C64.4835 21.2005 63.9453 21.6035 63.8619 22.1841C63.8619 22.1843 63.8619 22.1843 63.8619 22.1844L63.2715 26.3154C63.1888 26.896 62.651 27.2997 62.0704 27.217C61.7914 27.1773 61.5397 27.0282 61.3706 26.8028L58.8675 23.4641C58.5156 22.9948 57.85 22.8998 57.3808 23.2517L54.1896 25.6464C52.7459 25.4929 51.29 25.4929 49.8462 25.6464C40.3914 26.727 32.977 34.2672 32.0553 43.7389C32.0266 44.0394 32.016 44.3378 32.0011 44.6362H31.6826C31.1787 44.6372 30.7447 44.9921 30.644 45.4858L29.9102 48.9754L26.9707 46.9481C26.5488 46.657 25.9791 46.7089 25.6167 47.0713L22.4308 50.2572C22.069 50.6194 22.0172 51.1884 22.3076 51.6101L24.3253 54.5443L20.8347 55.2781C20.3465 55.3851 19.9989 55.818 20 56.3177V60.5656C19.9997 61.0679 20.3516 61.5017 20.8432 61.6052L24.3338 62.339L22.3161 65.2732C22.0257 65.6949 22.0775 66.2639 22.4393 66.6261L25.6252 69.812C25.9876 70.1744 26.5573 70.2263 26.9792 69.9352L29.9133 67.9122L30.6472 71.4028C30.7479 71.8965 31.1818 72.2514 31.6857 72.2524H35.9336C36.4359 72.2526 36.8697 71.9007 36.9732 71.4092L37.707 67.9185L40.6412 69.9362C41.0629 70.2267 41.6319 70.1749 41.9941 69.8131L43.6434 68.1585V71.1851C43.6481 72.6959 44.4575 74.0895 45.7673 74.8425V80.7427C45.7673 83.0887 47.6691 84.9905 50.0151 84.9905H54.2629C56.6089 84.9905 58.5107 83.0887 58.5107 80.7427V74.8425C59.8205 74.0895 60.6298 72.6959 60.6346 71.1851V66.9819C60.6634 65.2133 61.5887 63.5806 63.0909 62.647C63.9722 62.0753 64.808 61.4361 65.5908 60.7355L64.1741 59.1532C63.4739 59.7808 62.7257 60.3528 61.9366 60.864C59.8279 62.1874 58.5371 64.4924 58.5107 66.9819V71.1851C58.5107 72.3582 57.5599 73.309 56.3868 73.309H47.8912C46.7181 73.309 45.7673 72.3582 45.7673 71.1851V66.8937C45.7427 64.4514 44.4722 62.1909 42.3987 60.9001C33.9818 55.6113 31.4459 44.5007 36.7347 36.0838C40.0161 30.8615 45.743 27.6829 51.9107 27.6609C51.8949 27.6987 51.8809 27.7374 51.8692 27.7767C51.8298 28.0554 51.9028 28.3386 52.0721 28.5636L54.5751 31.9013C54.839 32.2428 54.8644 32.712 54.6388 33.0801C54.4217 33.4504 54.0018 33.6524 53.5769 33.5909L49.4459 33.0004C48.8652 32.9172 48.3272 33.3203 48.2439 33.9008C48.2439 33.9012 48.2437 33.9016 48.2437 33.902L47.3421 40.209C47.2589 40.7894 47.6621 41.3276 48.2425 41.411C48.2429 41.411 48.2433 41.4111 48.2437 41.4111L52.3747 42.0015C52.9554 42.0842 53.359 42.622 53.2763 43.2026C53.2366 43.4816 53.0876 43.7333 52.8622 43.9024L49.5245 46.4055C49.0552 46.7574 48.9602 47.4229 49.3121 47.8922L53.1351 52.9896C53.487 53.4588 54.1526 53.5539 54.6218 53.202L57.9606 50.6989C58.4303 50.3477 59.0958 50.4437 59.4471 50.9135C59.6151 51.1382 59.6875 51.4204 59.6481 51.6982L59.0587 55.8292C58.9753 56.4097 59.3783 56.948 59.959 57.0314C59.9591 57.0314 59.9591 57.0314 59.9592 57.0314L66.2672 57.933C66.3169 57.9393 66.3669 57.9425 66.417 57.9425C66.9457 57.9432 67.3942 57.5548 67.4694 57.0314L68.0587 52.9004C68.1414 52.3197 68.6792 51.9161 69.2598 51.9988C69.5388 52.0385 69.7905 52.1875 69.9596 52.4129L72.4637 55.7507C72.8156 56.2199 73.4812 56.315 73.9505 55.963L79.0478 52.14C79.5171 51.7881 79.6121 51.1225 79.2602 50.6533L76.7572 47.3156C76.4945 46.9735 76.4692 46.5051 76.6935 46.1368C76.906 45.7615 77.3297 45.5582 77.7555 45.627L81.8865 46.2164C82.4669 46.2998 83.0052 45.8966 83.0886 45.3162C83.0886 45.316 83.0886 45.316 83.0886 45.3159L83.9891 39.0079C84.0725 38.4273 83.6695 37.8891 83.0888 37.8058ZM47.8912 75.4329H56.3868V77.5568H47.8912V75.4329ZM47.8912 79.6807H56.3868V80.7427C56.3868 81.9157 55.436 82.8666 54.2629 82.8666H50.0151C48.842 82.8666 47.8912 81.9157 47.8912 80.7427V79.6807ZM39.437 61.3673C40.0168 61.8415 40.6226 62.283 41.2518 62.6895C42.2552 63.3236 43.0106 64.2829 43.3917 65.407L41.1138 67.6807L38.9081 66.1599C37.9423 65.4944 36.6197 65.7378 35.954 66.7037C35.7944 66.9353 35.6824 67.1963 35.6245 67.4714L35.0681 70.1231H32.5438L31.9873 67.4757C31.7457 66.3279 30.6194 65.5931 29.4716 65.8347C29.1964 65.8926 28.9354 66.0046 28.7038 66.1642L26.497 67.6807L24.5622 65.75L26.0818 63.5454C26.7481 62.58 26.5054 61.2573 25.54 60.591C25.3082 60.4311 25.0469 60.3188 24.7714 60.2608L22.1239 59.7033V57.18L24.7714 56.6225C25.9188 56.3792 26.6518 55.2518 26.4085 54.1042C26.3508 53.832 26.2402 53.5738 26.0829 53.3443L24.5622 51.1333L26.497 49.2026L28.7048 50.7234C29.6711 51.3883 30.9936 51.144 31.6585 50.1778C31.8178 49.9464 31.9296 49.6857 31.9873 49.4108L32.1732 48.5272C32.3434 49.7509 32.6252 50.9562 33.0153 52.1283C29.5211 52.5449 27.0262 55.7153 27.4427 59.2096C27.8593 62.7038 31.0297 65.1987 34.524 64.7822C36.6274 64.5313 38.4687 63.2515 39.437 61.3673ZM37.7877 59.871C36.9947 62.0753 34.5651 63.2192 32.3609 62.4264C30.1567 61.6334 29.0127 59.2037 29.8056 56.9995C30.4122 55.3133 32.0132 54.1901 33.8053 54.1938C33.8191 54.1938 33.8318 54.1938 33.8456 54.1938C34.8222 56.2996 36.1559 58.2202 37.7877 59.871ZM81.1303 43.9608L78.0507 43.5212C76.3088 43.2724 74.6952 44.4829 74.4464 46.2247C74.3269 47.0611 74.5446 47.9108 75.0517 48.5867L76.9176 51.0749L73.5193 53.6236L71.6524 51.1365C70.5968 49.7287 68.5999 49.4432 67.1923 50.4988C66.5164 51.0056 66.0694 51.7602 65.9497 52.5967L65.5196 55.6806L61.3153 55.0795L61.755 51.9998C62.0044 50.2581 60.7946 48.6439 59.0528 48.3946C58.2159 48.2748 57.3658 48.4925 56.6895 48.9998L54.2013 50.8657L51.6526 47.4674L54.1397 45.6005C55.5475 44.5449 55.833 42.548 54.7774 41.1404C54.2706 40.4645 53.5159 40.0175 52.6795 39.8978L49.5999 39.4582L50.2009 35.2539L53.2806 35.6935C55.0223 35.943 56.6365 34.7331 56.8858 32.9914C57.0057 32.1544 56.788 31.3043 56.2806 30.628L54.4084 28.1377L57.8066 25.589L59.6736 28.0772C60.7291 29.4849 62.726 29.7705 64.1336 28.7149C64.8096 28.2081 65.2565 27.4534 65.3762 26.617L65.8159 23.5373L70.0202 24.1373L69.5805 27.217C69.3318 28.9589 70.5421 30.5725 72.284 30.8213C73.1204 30.9407 73.9701 30.723 74.646 30.216L77.1342 28.3501L79.6829 31.7484L77.1947 33.6153C75.787 34.6709 75.5014 36.6677 76.557 38.0754C77.0639 38.7513 77.8185 39.1982 78.6549 39.318L81.7346 39.7576L81.1303 43.9608Z" fill="#336FAA"/>
<path d="M65.6641 31.1113C60.9721 31.1113 57.1685 34.915 57.1685 39.607C57.1685 44.2989 60.9721 48.1026 65.6641 48.1026C70.3561 48.1026 74.1597 44.2989 74.1597 39.607C74.1544 34.9171 70.3539 31.1165 65.6641 31.1113ZM65.6641 45.9787C62.145 45.9787 59.2924 43.126 59.2924 39.607C59.2924 36.0879 62.145 33.2352 65.6641 33.2352C69.1831 33.2352 72.0358 36.0879 72.0358 39.607C72.0317 43.1243 69.1814 45.9746 65.6641 45.9787Z" fill="#336FAA"/>
<path d="M53.201 67.999H51.0771V71.1849H53.201V67.999Z" fill="#336FAA"/>
<path d="M47.494 57.5696C40.9385 55.0087 37.7002 47.6183 40.2612 41.0628C41.2536 38.5226 43.0346 36.3677 45.3425 34.915L44.2073 33.1182C37.26 37.4949 35.176 46.6748 39.5528 53.6221C41.2478 56.3127 43.7609 58.3889 46.7231 59.5459C49.345 60.5506 51.0764 63.0674 51.0771 65.8752H53.201C53.2043 62.1913 50.9341 58.8874 47.494 57.5696Z" fill="#336FAA"/>
<path d="M79.7496 60.5654H72.3159V62.6893H79.7496V60.5654Z" fill="#336FAA"/>
<path d="M71.9342 66.1206L70.5747 67.7524L76.9469 73.0613L78.3064 71.4295L71.9342 66.1206Z" fill="#336FAA"/>
<path d="M68.0682 69.061H65.9443V76.4947H68.0682V69.061Z" fill="#336FAA"/>
<path d="M29.5795 37.2339L21.0845 39.3574L21.5993 41.4168L30.0943 39.2933L29.5795 37.2339Z" fill="#336FAA"/>
<path d="M24.0824 26.7824L22.8486 28.5098L30.2817 33.819L31.5155 32.0916L24.0824 26.7824Z" fill="#336FAA"/>
<path d="M34.0049 21.0091L31.9473 21.5352L34.1192 30.0301L36.1769 29.504L34.0049 21.0091Z" fill="#336FAA"/>
</svg>
