<svg width="102" height="102" viewBox="0 0 102 102" fill="none" xmlns="http://www.w3.org/2000/svg">
<path d="M66.0663 33.5312H62.6309C62.4195 33.5312 62.2168 33.6152 62.0674 33.7647C61.9179 33.9141 61.834 34.1168 61.834 34.3281C61.834 34.5395 61.9179 34.7422 62.0674 34.8916C62.2168 35.041 62.4195 35.125 62.6309 35.125H66.0663C66.2777 35.125 66.4804 35.041 66.6298 34.8916C66.7792 34.7422 66.8632 34.5395 66.8632 34.3281C66.8632 34.1168 66.7792 33.9141 66.6298 33.7647C66.4804 33.6152 66.2777 33.5312 66.0663 33.5312Z" fill="#336FAA"/>
<path d="M58.959 33.5312C58.7476 33.5312 58.545 33.6152 58.3955 33.7647C58.2461 33.9141 58.1621 34.1168 58.1621 34.3281C58.1621 34.5395 58.2461 34.7422 58.3955 34.8916C58.545 35.041 58.7476 35.125 58.959 35.125H59.6456C59.857 35.125 60.0597 35.041 60.2091 34.8916C60.3585 34.7422 60.4425 34.5395 60.4425 34.3281C60.4425 34.1168 60.3585 33.9141 60.2091 33.7647C60.0597 33.6152 59.857 33.5312 59.6456 33.5312H58.959Z" fill="#336FAA"/>
<path d="M40.1619 33.5312C39.9505 33.5312 39.7478 33.6152 39.5984 33.7647C39.4489 33.9141 39.365 34.1168 39.365 34.3281C39.365 34.5395 39.4489 34.7422 39.5984 34.8916C39.7478 35.041 39.9505 35.125 40.1619 35.125H55.9341C56.1455 35.125 56.3482 35.041 56.4976 34.8916C56.6471 34.7422 56.731 34.5395 56.731 34.3281C56.731 34.1168 56.6471 33.9141 56.4976 33.7647C56.3482 33.6152 56.1455 33.5312 55.9341 33.5312H40.1619Z" fill="#336FAA"/>
<path d="M66.0664 40.1382H53.4402C53.2288 40.1382 53.0262 40.2221 52.8767 40.3716C52.7273 40.521 52.6433 40.7237 52.6433 40.9351C52.6433 41.1464 52.7273 41.3491 52.8767 41.4985C53.0262 41.648 53.2288 41.7319 53.4402 41.7319H66.0664C66.2777 41.7319 66.4804 41.648 66.6299 41.4985C66.7793 41.3491 66.8633 41.1464 66.8633 40.9351C66.8633 40.7237 66.7793 40.521 66.6299 40.3716C66.4804 40.2221 66.2777 40.1382 66.0664 40.1382Z" fill="#336FAA"/>
<path d="M50.2698 40.1382C50.0584 40.1382 49.8557 40.2221 49.7063 40.3716C49.5569 40.521 49.4729 40.7237 49.4729 40.9351C49.4729 41.1464 49.5569 41.3491 49.7063 41.4985C49.8557 41.648 50.0584 41.7319 50.2698 41.7319H50.4727C50.6841 41.7319 50.8867 41.648 51.0362 41.4985C51.1856 41.3491 51.2696 41.1464 51.2696 40.9351C51.2696 40.7237 51.1856 40.521 51.0362 40.3716C50.8867 40.2221 50.6841 40.1382 50.4727 40.1382H50.2698Z" fill="#336FAA"/>
<path d="M47.365 40.1382H40.1619C39.9505 40.1382 39.7478 40.2221 39.5984 40.3716C39.4489 40.521 39.365 40.7237 39.365 40.9351C39.365 41.1464 39.4489 41.3491 39.5984 41.4985C39.7478 41.648 39.9505 41.7319 40.1619 41.7319H47.365C47.5763 41.7319 47.779 41.648 47.9284 41.4985C48.0779 41.3491 48.1618 41.1464 48.1618 40.9351C48.1618 40.7237 48.0779 40.521 47.9284 40.3716C47.779 40.2221 47.5763 40.1382 47.365 40.1382Z" fill="#336FAA"/>
<path d="M66.0662 46.7451H64.9304C64.7191 46.7451 64.5164 46.8291 64.3669 46.9785C64.2175 47.128 64.1335 47.3306 64.1335 47.542C64.1335 47.7533 64.2175 47.956 64.3669 48.1055C64.5164 48.2549 64.7191 48.3389 64.9304 48.3389H66.0669C66.2782 48.3389 66.4809 48.2549 66.6304 48.1055C66.7798 47.956 66.8638 47.7533 66.8638 47.542C66.8638 47.3306 66.7798 47.128 66.6304 46.9785C66.4809 46.8291 66.2782 46.7451 66.0669 46.7451H66.0662Z" fill="#336FAA"/>
<path d="M61.9615 46.7451H49.1221C48.9107 46.7451 48.708 46.8291 48.5586 46.9785C48.4092 47.128 48.3252 47.3306 48.3252 47.542C48.3252 47.7533 48.4092 47.956 48.5586 48.1055C48.708 48.2549 48.9107 48.3389 49.1221 48.3389H61.9615C62.1728 48.3389 62.3755 48.2549 62.5249 48.1055C62.6744 47.956 62.7583 47.7533 62.7583 47.542C62.7583 47.3306 62.6744 47.128 62.5249 46.9785C62.3755 46.8291 62.1728 46.7451 61.9615 46.7451Z" fill="#336FAA"/>
<path d="M40.1619 48.3389H46.1133C46.3247 48.3389 46.5274 48.2549 46.6768 48.1055C46.8262 47.956 46.9102 47.7533 46.9102 47.542C46.9102 47.3306 46.8262 47.128 46.6768 46.9785C46.5274 46.8291 46.3247 46.7451 46.1133 46.7451H40.1619C39.9505 46.7451 39.7478 46.8291 39.5984 46.9785C39.4489 47.128 39.365 47.3306 39.365 47.542C39.365 47.7533 39.4489 47.956 39.5984 48.1055C39.7478 48.2549 39.9505 48.3389 40.1619 48.3389Z" fill="#336FAA"/>
<path d="M59.4102 53.3521H56.6353C56.4239 53.3521 56.2212 53.436 56.0718 53.5854C55.9223 53.7349 55.8384 53.9376 55.8384 54.1489C55.8384 54.3603 55.9223 54.563 56.0718 54.7124C56.2212 54.8618 56.4239 54.9458 56.6353 54.9458H59.4102C59.6216 54.9458 59.8243 54.8618 59.9737 54.7124C60.1232 54.563 60.2071 54.3603 60.2071 54.1489C60.2071 53.9376 60.1232 53.7349 59.9737 53.5854C59.8243 53.436 59.6216 53.3521 59.4102 53.3521Z" fill="#336FAA"/>
<path d="M54.4988 54.1489C54.4988 53.9376 54.4148 53.7349 54.2654 53.5854C54.116 53.436 53.9133 53.3521 53.7019 53.3521H46.7925C46.5811 53.3521 46.3784 53.436 46.229 53.5854C46.0796 53.7349 45.9956 53.9376 45.9956 54.1489C45.9956 54.3603 46.0796 54.563 46.229 54.7124C46.3784 54.8618 46.5811 54.9458 46.7925 54.9458H53.7019C53.9133 54.9458 54.116 54.8618 54.2654 54.7124C54.4148 54.563 54.4988 54.3603 54.4988 54.1489Z" fill="#336FAA"/>
<path d="M40.1619 54.9458H43.872C44.0833 54.9458 44.286 54.8618 44.4355 54.7124C44.5849 54.563 44.6689 54.3603 44.6689 54.1489C44.6689 53.9376 44.5849 53.7349 44.4355 53.5854C44.286 53.436 44.0833 53.3521 43.872 53.3521H40.1619C39.9505 53.3521 39.7478 53.436 39.5984 53.5854C39.4489 53.7349 39.365 53.9376 39.365 54.1489C39.365 54.3603 39.4489 54.563 39.5984 54.7124C39.7478 54.8618 39.9505 54.9458 40.1619 54.9458Z" fill="#336FAA"/>
<path d="M58.6715 59.959H54.9622C54.7508 59.959 54.5481 60.0429 54.3987 60.1924C54.2492 60.3418 54.1653 60.5445 54.1653 60.7559C54.1653 60.9672 54.2492 61.1699 54.3987 61.3193C54.5481 61.4688 54.7508 61.5527 54.9622 61.5527H58.6715C58.8828 61.5527 59.0855 61.4688 59.235 61.3193C59.3844 61.1699 59.4684 60.9672 59.4684 60.7559C59.4684 60.5445 59.3844 60.3418 59.235 60.1924C59.0855 60.0429 58.8828 59.959 58.6715 59.959Z" fill="#336FAA"/>
<path d="M43.8857 61.5527H52.0345C52.2458 61.5527 52.4485 61.4688 52.5979 61.3193C52.7474 61.1699 52.8313 60.9672 52.8313 60.7559C52.8313 60.5445 52.7474 60.3418 52.5979 60.1924C52.4485 60.0429 52.2458 59.959 52.0345 59.959H43.8857C43.6744 59.959 43.4717 60.0429 43.3223 60.1924C43.1728 60.3418 43.0889 60.5445 43.0889 60.7559C43.0889 60.9672 43.1728 61.1699 43.3223 61.3193C43.4717 61.4688 43.6744 61.5527 43.8857 61.5527Z" fill="#336FAA"/>
<path d="M40.9578 59.959H40.1624C39.951 59.959 39.7483 60.0429 39.5989 60.1924C39.4494 60.3418 39.3655 60.5445 39.3655 60.7559C39.3655 60.9672 39.4494 61.1699 39.5989 61.3193C39.7483 61.4688 39.951 61.5527 40.1624 61.5527H40.9578C41.1691 61.5527 41.3718 61.4688 41.5212 61.3193C41.6707 61.1699 41.7546 60.9672 41.7546 60.7559C41.7546 60.5445 41.6707 60.3418 41.5212 60.1924C41.3718 60.0429 41.1691 59.959 40.9578 59.959Z" fill="#336FAA"/>
<path d="M58.2681 28.5186H59.1242C59.3355 28.5186 59.5382 28.4346 59.6877 28.2852C59.8371 28.1357 59.9211 27.933 59.9211 27.7217C59.9211 27.5103 59.8371 27.3076 59.6877 27.1582C59.5382 27.0088 59.3355 26.9248 59.1242 26.9248H58.2681C58.0567 26.9248 57.854 27.0088 57.7046 27.1582C57.5551 27.3076 57.4712 27.5103 57.4712 27.7217C57.4712 27.933 57.5551 28.1357 57.7046 28.2852C57.854 28.4346 58.0567 28.5186 58.2681 28.5186Z" fill="#336FAA"/>
<path d="M44.9705 28.5186H55.3681C55.5795 28.5186 55.7821 28.4346 55.9316 28.2852C56.081 28.1357 56.165 27.933 56.165 27.7217C56.165 27.5103 56.081 27.3076 55.9316 27.1582C55.7821 27.0088 55.5795 26.9248 55.3681 26.9248H44.9702C44.7589 26.9248 44.5562 27.0088 44.4067 27.1582C44.2573 27.3076 44.1733 27.5103 44.1733 27.7217C44.1733 27.933 44.2573 28.1357 44.4067 28.2852C44.5562 28.4346 44.7589 28.5186 44.9702 28.5186H44.9705Z" fill="#336FAA"/>
<path d="M40.0264 28.5186H42.0498C42.2611 28.5186 42.4638 28.4346 42.6132 28.2852C42.7627 28.1357 42.8466 27.933 42.8466 27.7217C42.8466 27.5103 42.7627 27.3076 42.6132 27.1582C42.4638 27.0088 42.2611 26.9248 42.0498 26.9248H40.0264C39.815 26.9248 39.6123 27.0088 39.4629 27.1582C39.3134 27.3076 39.2295 27.5103 39.2295 27.7217C39.2295 27.933 39.3134 28.1357 39.4629 28.2852C39.6123 28.4346 39.815 28.5186 40.0264 28.5186Z" fill="#336FAA"/>
<path d="M58.6714 66.5654H49.97C49.7586 66.5654 49.5559 66.6494 49.4065 66.7988C49.2571 66.9483 49.1731 67.151 49.1731 67.3623C49.1731 67.5736 49.2571 67.7763 49.4065 67.9258C49.5559 68.0752 49.7586 68.1592 49.97 68.1592H58.6714C58.8828 68.1592 59.0855 68.0752 59.2349 67.9258C59.3844 67.7763 59.4683 67.5736 59.4683 67.3623C59.4683 67.151 59.3844 66.9483 59.2349 66.7988C59.0855 66.6494 58.8828 66.5654 58.6714 66.5654Z" fill="#336FAA"/>
<path d="M46.9622 66.5654H43.75C43.5387 66.5654 43.336 66.6494 43.1865 66.7988C43.0371 66.9483 42.9531 67.151 42.9531 67.3623C42.9531 67.5736 43.0371 67.7763 43.1865 67.9258C43.336 68.0752 43.5387 68.1592 43.75 68.1592H46.9622C47.0668 68.1592 47.1705 68.1386 47.2672 68.0985C47.3638 68.0585 47.4517 67.9998 47.5257 67.9258C47.5997 67.8518 47.6584 67.7639 47.6984 67.6673C47.7385 67.5706 47.7591 67.467 47.7591 67.3623C47.7591 67.2577 47.7385 67.154 47.6984 67.0574C47.6584 66.9607 47.5997 66.8728 47.5257 66.7988C47.4517 66.7248 47.3638 66.6661 47.2672 66.6261C47.1705 66.586 47.0668 66.5654 46.9622 66.5654Z" fill="#336FAA"/>
<path d="M40.6939 66.5654H40.1619C40.0572 66.5654 39.9536 66.586 39.8569 66.6261C39.7602 66.6661 39.6724 66.7248 39.5984 66.7988C39.5244 66.8728 39.4657 66.9607 39.4256 67.0574C39.3856 67.154 39.365 67.2577 39.365 67.3623C39.365 67.467 39.3856 67.5706 39.4256 67.6673C39.4657 67.7639 39.5244 67.8518 39.5984 67.9258C39.6724 67.9998 39.7602 68.0585 39.8569 68.0985C39.9536 68.1386 40.0572 68.1592 40.1619 68.1592H40.6939C40.9053 68.1592 41.1079 68.0752 41.2574 67.9258C41.4068 67.7763 41.4908 67.5736 41.4908 67.3623C41.4908 67.151 41.4068 66.9483 41.2574 66.7988C41.1079 66.6494 40.9053 66.5654 40.6939 66.5654Z" fill="#336FAA"/>
<path d="M37.0398 23.1143C36.8285 23.1143 36.6258 23.1982 36.4763 23.3477C36.3269 23.4971 36.2429 23.6998 36.2429 23.9111V24.7479C36.2429 24.9592 36.3269 25.1619 36.4763 25.3113C36.6258 25.4608 36.8285 25.5447 37.0398 25.5447C37.2511 25.5447 37.4538 25.4608 37.6033 25.3113C37.7527 25.1619 37.8367 24.9592 37.8367 24.7479V23.9111C37.8367 23.6998 37.7527 23.4971 37.6033 23.3477C37.4538 23.1982 37.2511 23.1143 37.0398 23.1143Z" fill="#336FAA"/>
<path d="M37.0398 27.0054C36.8285 27.0054 36.6258 27.0893 36.4763 27.2388C36.3269 27.3882 36.2429 27.5909 36.2429 27.8022V40.9507C36.2429 41.162 36.3269 41.3647 36.4763 41.5142C36.6258 41.6636 36.8285 41.7476 37.0398 41.7476C37.2511 41.7476 37.4538 41.6636 37.6033 41.5142C37.7527 41.3647 37.8367 41.162 37.8367 40.9507V27.8022C37.8367 27.5909 37.7527 27.3882 37.6033 27.2388C37.4538 27.0893 37.2511 27.0054 37.0398 27.0054Z" fill="#336FAA"/>
<path d="M77.8919 57.5805L71.369 64.1034L69.1405 61.8755C68.9902 61.7303 68.7889 61.65 68.58 61.6518C68.3711 61.6536 68.1712 61.7374 68.0234 61.8852C67.8757 62.0329 67.7919 62.2328 67.7901 62.4417C67.7883 62.6507 67.8686 62.852 68.0137 63.0023L70.8052 65.7939C70.9546 65.9433 71.1573 66.0272 71.3686 66.0272C71.58 66.0272 71.7827 65.9433 71.9321 65.7939L79.0186 58.7072C79.166 58.5574 79.2482 58.3553 79.2473 58.1451C79.2465 57.9349 79.1625 57.7335 79.0139 57.5849C78.8652 57.4363 78.6638 57.3524 78.4536 57.3516C78.2434 57.3507 78.0414 57.433 77.8915 57.5805H77.8919Z" fill="#336FAA"/>
<path d="M74.03 51.6062C74.0064 51.6051 73.983 51.605 73.9595 51.604V29.8998C73.9608 29.3235 73.7356 28.7699 73.3324 28.3581L63.5474 18.3281C63.3418 18.1185 63.0965 17.9518 62.8258 17.8378C62.5552 17.7238 62.2646 17.6648 61.9709 17.6641H34.6129C34.0283 17.6651 33.468 17.8979 33.0548 18.3115C32.6417 18.7252 32.4095 19.2857 32.4091 19.8703V21.9082H30.3921C29.8075 21.9092 29.2471 22.142 28.834 22.5557C28.4208 22.9693 28.1886 23.5299 28.1882 24.1145V25.3036H26.5934C26.0088 25.3046 25.4484 25.5375 25.0353 25.9511C24.6222 26.3647 24.39 26.9254 24.3896 27.51V82.1297C24.39 82.7143 24.6222 83.2749 25.0353 83.6885C25.4485 84.1021 26.0088 84.335 26.5934 84.3359H63.8769C64.4615 84.335 65.0219 84.1021 65.4351 83.6885C65.8482 83.2749 66.0805 82.7143 66.0808 82.1297V80.799H67.6758C68.2603 80.798 68.8207 80.5651 69.2338 80.1515C69.6469 79.7379 69.8791 79.1773 69.8794 78.5927V76.8377H71.7558C72.3403 76.8368 72.9007 76.6039 73.3138 76.1903C73.7269 75.7768 73.9592 75.2162 73.9595 74.6316V71.7705C76.5506 71.6559 78.9982 70.5482 80.7945 68.6772C82.5907 66.8062 83.5979 64.3156 83.6069 61.722C83.616 59.1283 82.6263 56.6307 80.8432 54.7472C79.06 52.8638 76.6203 51.739 74.03 51.6062ZM63.1261 20.1794L71.3001 28.5575H67.0687C66.0223 28.5552 65.0196 28.1379 64.2805 27.3972C63.5414 26.6566 63.1263 25.6529 63.1263 24.6066L63.1261 20.1794ZM64.4869 82.1297C64.4871 82.2917 64.4229 82.4472 64.3086 82.562C64.1942 82.6769 64.039 82.7417 63.8769 82.7422H26.5934C26.4313 82.7417 26.2761 82.6769 26.1618 82.562C26.0474 82.4472 25.9833 82.2917 25.9834 82.1297V27.51C25.9832 27.3479 26.0473 27.1924 26.1617 27.0775C26.2761 26.9627 26.4313 26.8978 26.5934 26.8973H28.1882V78.5927C28.1886 79.1773 28.4208 79.738 28.834 80.1516C29.2471 80.5652 29.8075 80.798 30.3921 80.799H64.4871L64.4869 82.1297ZM68.2854 78.5927C68.2855 78.7548 68.2214 78.9103 68.1071 79.0251C67.9928 79.1399 67.8375 79.2047 67.6755 79.2053H30.3921C30.23 79.2048 30.0748 79.14 29.9604 79.0252C29.846 78.9103 29.7818 78.7548 29.782 78.5927V24.1145C29.7818 23.9524 29.846 23.7969 29.9604 23.6821C30.0748 23.5672 30.23 23.5025 30.3921 23.502H32.4091V74.6316C32.4095 75.2162 32.6417 75.7768 33.0548 76.1903C33.468 76.6039 34.0283 76.8368 34.6129 76.8377H68.2856L68.2854 78.5927ZM72.9722 70.17C71.5714 70.081 70.2146 69.6462 69.0229 68.9046C67.8312 68.163 66.8419 67.1377 66.1433 65.9203C65.4447 64.7029 65.0587 63.3313 65.0197 61.9283C64.9807 60.5252 65.29 59.1344 65.9198 57.8801C65.9929 57.7316 66.0173 57.5639 65.9897 57.4007C65.9622 57.2375 65.884 57.0871 65.7662 56.9709C65.6771 56.8817 65.5682 56.8149 65.4483 56.7761C65.3284 56.7372 65.2011 56.7273 65.0766 56.7472C64.9522 56.7671 64.8342 56.8162 64.7325 56.8905C64.6307 56.9648 64.548 57.0622 64.4912 57.1747C63.7641 58.6257 63.3979 60.2307 63.4237 61.8535C63.4496 63.4762 63.8667 65.0688 64.6396 66.4959C65.4125 67.923 66.5185 69.1425 67.8635 70.0507C69.2085 70.959 70.7528 71.5292 72.3654 71.713V74.6316C72.3655 74.7936 72.3014 74.9491 72.187 75.0639C72.0726 75.1787 71.9174 75.2435 71.7554 75.244H34.6129C34.4508 75.2435 34.2956 75.1787 34.1812 75.0639C34.0669 74.9491 34.0027 74.7936 34.0029 74.6316V19.8703C34.0027 19.7083 34.0669 19.5528 34.1812 19.438C34.2956 19.3231 34.4508 19.2583 34.6129 19.2578H61.5325V24.6066C61.533 26.0755 62.1162 27.4842 63.1541 28.5237C64.192 29.5631 65.5998 30.1484 67.0687 30.1512H72.3658V51.6603C70.9764 51.8187 69.6356 52.2661 68.4295 52.9737C68.3253 53.0357 68.2366 53.1207 68.1703 53.2222C68.104 53.3237 68.0618 53.439 68.0468 53.5593C68.0319 53.6796 68.0447 53.8017 68.0842 53.9164C68.1238 54.031 68.189 54.135 68.2749 54.2206C68.3985 54.3448 68.5598 54.4245 68.7335 54.4472C68.9073 54.47 69.0837 54.4345 69.2351 54.3463C70.3825 53.6771 71.6708 53.2862 72.9965 53.2048C74.3223 53.1235 75.6487 53.354 76.8693 53.8779C78.0899 54.4018 79.1707 55.2045 80.025 56.2216C80.8793 57.2387 81.4834 58.4419 81.7886 59.7346C82.0939 61.0273 82.092 62.3736 81.7829 63.6654C81.4739 64.9572 80.8663 66.1586 80.009 67.1732C79.1518 68.1878 78.0686 68.9874 76.8465 69.5077C75.6244 70.0281 74.2973 70.2547 72.9718 70.1695L72.9722 70.17Z" fill="#336FAA"/>
</svg>
