<svg width="119" height="56" viewBox="0 0 119 56" fill="none" xmlns="http://www.w3.org/2000/svg">
<path d="M38.8011 9.36364C38.7415 8.85985 38.4995 8.46875 38.0753 8.19034C37.651 7.91193 37.1307 7.77273 36.5142 7.77273C36.0634 7.77273 35.669 7.84564 35.331 7.99148C34.9962 8.13731 34.7344 8.33783 34.5455 8.59304C34.3598 8.84825 34.267 9.13826 34.267 9.46307C34.267 9.73485 34.3317 9.96851 34.4609 10.1641C34.5935 10.3563 34.7625 10.517 34.968 10.6463C35.1735 10.7723 35.389 10.8767 35.6143 10.9595C35.8397 11.0391 36.0469 11.1037 36.2358 11.1534L37.2699 11.4318C37.535 11.5014 37.83 11.5975 38.1548 11.7202C38.483 11.8428 38.7962 12.0102 39.0945 12.2223C39.3961 12.4311 39.6446 12.6996 39.8402 13.0277C40.0357 13.3558 40.1335 13.7585 40.1335 14.2358C40.1335 14.786 39.9893 15.2831 39.701 15.7273C39.416 16.1714 38.9983 16.5244 38.4482 16.7862C37.9013 17.0481 37.2367 17.179 36.4545 17.179C35.7254 17.179 35.094 17.0613 34.5604 16.826C34.0301 16.5907 33.6125 16.2625 33.3075 15.8416C33.0059 15.4207 32.8352 14.9318 32.7955 14.375H34.0682C34.1013 14.7595 34.2306 15.0777 34.456 15.3295C34.6847 15.5781 34.973 15.7637 35.321 15.8864C35.6723 16.0057 36.0502 16.0653 36.4545 16.0653C36.9252 16.0653 37.3478 15.9891 37.7223 15.8366C38.0968 15.6809 38.3935 15.4654 38.6122 15.1903C38.831 14.9119 38.9403 14.5871 38.9403 14.2159C38.9403 13.8778 38.8459 13.6027 38.657 13.3906C38.468 13.1785 38.2195 13.0062 37.9112 12.8736C37.603 12.741 37.2699 12.625 36.9119 12.5256L35.6591 12.1676C34.8636 11.9389 34.2339 11.6125 33.7699 11.1882C33.3059 10.764 33.0739 10.2088 33.0739 9.52273C33.0739 8.95265 33.228 8.45549 33.5362 8.03125C33.8478 7.60369 34.2654 7.27225 34.7891 7.03693C35.3161 6.7983 35.9044 6.67898 36.554 6.67898C37.2102 6.67898 37.7936 6.79664 38.304 7.03196C38.8144 7.26397 39.2188 7.58215 39.517 7.98651C39.8187 8.39086 39.9777 8.8499 39.9943 9.36364H38.8011ZM44.2488 17.179C43.7649 17.179 43.3257 17.0878 42.9313 16.9055C42.5369 16.7199 42.2237 16.4531 41.9917 16.1051C41.7596 15.7538 41.6436 15.3295 41.6436 14.8324C41.6436 14.3949 41.7298 14.0402 41.9022 13.7685C42.0745 13.4934 42.3049 13.2779 42.5932 13.1222C42.8816 12.9664 43.1998 12.8504 43.5478 12.7741C43.8991 12.6946 44.2521 12.6316 44.6067 12.5852C45.0707 12.5256 45.4469 12.4808 45.7353 12.451C46.0269 12.4179 46.2391 12.3632 46.3716 12.2869C46.5075 12.2107 46.5755 12.0781 46.5755 11.8892V11.8494C46.5755 11.3589 46.4412 10.9777 46.1728 10.706C45.9076 10.4342 45.5049 10.2983 44.9647 10.2983C44.4045 10.2983 43.9654 10.4209 43.6472 10.6662C43.329 10.9115 43.1053 11.1733 42.976 11.4517L41.8624 11.054C42.0613 10.59 42.3264 10.2287 42.6578 9.97017C42.9926 9.70833 43.3572 9.52604 43.7516 9.4233C44.1493 9.31723 44.5404 9.2642 44.9249 9.2642C45.1702 9.2642 45.4519 9.29403 45.7701 9.35369C46.0916 9.41004 46.4015 9.5277 46.6998 9.70668C47.0014 9.88565 47.2516 10.1558 47.4505 10.517C47.6493 10.8783 47.7488 11.3622 47.7488 11.9688V17H46.5755V15.9659H46.5158C46.4363 16.1316 46.3037 16.3089 46.1181 16.4979C45.9325 16.6868 45.6855 16.8475 45.3773 16.9801C45.0691 17.1127 44.6929 17.179 44.2488 17.179ZM44.4277 16.125C44.8917 16.125 45.2828 16.0339 45.601 15.8516C45.9225 15.6693 46.1645 15.4339 46.3269 15.1456C46.4926 14.8572 46.5755 14.554 46.5755 14.2358V13.1619C46.5257 13.2216 46.4164 13.2763 46.2473 13.326C46.0816 13.3724 45.8894 13.4138 45.6706 13.4503C45.4552 13.4834 45.2447 13.5133 45.0392 13.5398C44.8371 13.563 44.673 13.5829 44.5471 13.5994C44.2421 13.6392 43.9571 13.7038 43.6919 13.7933C43.4301 13.8795 43.218 14.0104 43.0556 14.1861C42.8965 14.3584 42.8169 14.5937 42.8169 14.892C42.8169 15.2997 42.9677 15.608 43.2694 15.8168C43.5743 16.0223 43.9604 16.125 44.4277 16.125ZM51.0636 6.81818V17H49.8903V6.81818H51.0636ZM55.4597 17.179C54.9758 17.179 54.5366 17.0878 54.1422 16.9055C53.7478 16.7199 53.4346 16.4531 53.2026 16.1051C52.9706 15.7538 52.8546 15.3295 52.8546 14.8324C52.8546 14.3949 52.9408 14.0402 53.1131 13.7685C53.2855 13.4934 53.5158 13.2779 53.8042 13.1222C54.0925 12.9664 54.4107 12.8504 54.7587 12.7741C55.11 12.6946 55.463 12.6316 55.8176 12.5852C56.2817 12.5256 56.6578 12.4808 56.9462 12.451C57.2379 12.4179 57.45 12.3632 57.5826 12.2869C57.7185 12.2107 57.7864 12.0781 57.7864 11.8892V11.8494C57.7864 11.3589 57.6522 10.9777 57.3837 10.706C57.1185 10.4342 56.7159 10.2983 56.1756 10.2983C55.6155 10.2983 55.1763 10.4209 54.8581 10.6662C54.54 10.9115 54.3162 11.1733 54.187 11.4517L53.0733 11.054C53.2722 10.59 53.5373 10.2287 53.8688 9.97017C54.2035 9.70833 54.5681 9.52604 54.9625 9.4233C55.3603 9.31723 55.7514 9.2642 56.1358 9.2642C56.3811 9.2642 56.6628 9.29403 56.981 9.35369C57.3025 9.41004 57.6124 9.5277 57.9107 9.70668C58.2123 9.88565 58.4625 10.1558 58.6614 10.517C58.8603 10.8783 58.9597 11.3622 58.9597 11.9688V17H57.7864V15.9659H57.7267C57.6472 16.1316 57.5146 16.3089 57.329 16.4979C57.1434 16.6868 56.8965 16.8475 56.5882 16.9801C56.28 17.1127 55.9038 17.179 55.4597 17.179ZM55.6387 16.125C56.1027 16.125 56.4938 16.0339 56.812 15.8516C57.1335 15.6693 57.3754 15.4339 57.5378 15.1456C57.7035 14.8572 57.7864 14.554 57.7864 14.2358V13.1619C57.7367 13.2216 57.6273 13.2763 57.4583 13.326C57.2926 13.3724 57.1003 13.4138 56.8816 13.4503C56.6661 13.4834 56.4557 13.5133 56.2502 13.5398C56.048 13.563 55.8839 13.5829 55.758 13.5994C55.4531 13.6392 55.168 13.7038 54.9029 13.7933C54.641 13.8795 54.4289 14.0104 54.2665 14.1861C54.1074 14.3584 54.0279 14.5937 54.0279 14.892C54.0279 15.2997 54.1787 15.608 54.4803 15.8168C54.7852 16.0223 55.1713 16.125 55.6387 16.125ZM61.1012 17V9.36364H62.2347V10.517H62.3143C62.4535 10.1392 62.7054 9.83262 63.07 9.5973C63.4345 9.36198 63.8455 9.24432 64.3029 9.24432C64.3891 9.24432 64.4968 9.24597 64.6261 9.24929C64.7553 9.2526 64.8531 9.25758 64.9194 9.2642V10.4574C64.8796 10.4474 64.7885 10.4325 64.646 10.4126C64.5067 10.3894 64.3593 10.3778 64.2035 10.3778C63.8323 10.3778 63.5008 10.4557 63.2092 10.6115C62.9208 10.764 62.6921 10.9761 62.5231 11.2479C62.3574 11.5163 62.2745 11.8229 62.2745 12.1676V17H61.1012ZM67.2983 19.8636C67.0994 19.8636 66.9221 19.8471 66.7663 19.8139C66.6106 19.7841 66.5028 19.7543 66.4432 19.7244L66.7415 18.6903C67.0265 18.7633 67.2784 18.7898 67.4972 18.7699C67.7159 18.75 67.9098 18.6522 68.0788 18.4766C68.2512 18.3042 68.4086 18.0241 68.5511 17.6364L68.7699 17.0398L65.946 9.36364H67.2188L69.3267 15.4489H69.4062L71.5142 9.36364H72.7869L69.5455 18.1136C69.3996 18.508 69.219 18.8345 69.0036 19.093C68.7881 19.3549 68.5379 19.5488 68.2528 19.6747C67.9711 19.8007 67.6529 19.8636 67.2983 19.8636Z" fill="#9D9D9D"/>
<path d="M36.0568 51.2727V38.5455H36.8722V51.2727H36.0568ZM38.8011 42.3636C38.7415 41.8598 38.4995 41.4688 38.0753 41.1903C37.651 40.9119 37.1307 40.7727 36.5142 40.7727C36.0634 40.7727 35.669 40.8456 35.331 40.9915C34.9962 41.1373 34.7344 41.3378 34.5455 41.593C34.3598 41.8482 34.267 42.1383 34.267 42.4631C34.267 42.7348 34.3317 42.9685 34.4609 43.1641C34.5935 43.3563 34.7625 43.517 34.968 43.6463C35.1735 43.7723 35.389 43.8767 35.6143 43.9595C35.8397 44.0391 36.0469 44.1037 36.2358 44.1534L37.2699 44.4318C37.535 44.5014 37.83 44.5975 38.1548 44.7202C38.483 44.8428 38.7962 45.0102 39.0945 45.2223C39.3961 45.4311 39.6446 45.6996 39.8402 46.0277C40.0357 46.3558 40.1335 46.7585 40.1335 47.2358C40.1335 47.786 39.9893 48.2831 39.701 48.7273C39.416 49.1714 38.9983 49.5244 38.4482 49.7862C37.9013 50.0481 37.2367 50.179 36.4545 50.179C35.7254 50.179 35.094 50.0613 34.5604 49.826C34.0301 49.5907 33.6125 49.2625 33.3075 48.8416C33.0059 48.4207 32.8352 47.9318 32.7955 47.375H34.0682C34.1013 47.7595 34.2306 48.0777 34.456 48.3295C34.6847 48.5781 34.973 48.7637 35.321 48.8864C35.6723 49.0057 36.0502 49.0653 36.4545 49.0653C36.9252 49.0653 37.3478 48.9891 37.7223 48.8366C38.0968 48.6809 38.3935 48.4654 38.6122 48.1903C38.831 47.9119 38.9403 47.5871 38.9403 47.2159C38.9403 46.8778 38.8459 46.6027 38.657 46.3906C38.468 46.1785 38.2195 46.0062 37.9112 45.8736C37.603 45.741 37.2699 45.625 36.9119 45.5256L35.6591 45.1676C34.8636 44.9389 34.2339 44.6125 33.7699 44.1882C33.3059 43.764 33.0739 43.2088 33.0739 42.5227C33.0739 41.9527 33.228 41.4555 33.5362 41.0312C33.8478 40.6037 34.2654 40.2723 34.7891 40.0369C35.3161 39.7983 35.9044 39.679 36.554 39.679C37.2102 39.679 37.7936 39.7966 38.304 40.032C38.8144 40.264 39.2188 40.5821 39.517 40.9865C39.8187 41.3909 39.9777 41.8499 39.9943 42.3636H38.8011ZM45.5613 39.8182V50H44.3283V41.1108H44.2686L41.7828 42.7614V41.5085L44.3283 39.8182H45.5613ZM48.4895 50V49.1051L51.8503 45.4261C52.2447 44.9953 52.5695 44.6207 52.8248 44.3026C53.08 43.9811 53.2689 43.6795 53.3915 43.3977C53.5175 43.1127 53.5804 42.8144 53.5804 42.5028C53.5804 42.1449 53.4943 41.835 53.3219 41.5732C53.1529 41.3113 52.9209 41.1091 52.6259 40.9666C52.3309 40.8241 51.9995 40.7528 51.6316 40.7528C51.2405 40.7528 50.8991 40.834 50.6074 40.9964C50.3191 41.1555 50.0953 41.3793 49.9363 41.6676C49.7805 41.956 49.7026 42.294 49.7026 42.6818H48.5293C48.5293 42.0852 48.6668 41.5616 48.9419 41.1108C49.217 40.66 49.5916 40.3087 50.0655 40.0568C50.5428 39.8049 51.0781 39.679 51.6713 39.679C52.2679 39.679 52.7966 39.8049 53.2573 40.0568C53.718 40.3087 54.0792 40.6484 54.3411 41.076C54.6029 41.5036 54.7338 41.9792 54.7338 42.5028C54.7338 42.8774 54.6659 43.2436 54.53 43.6016C54.3974 43.9562 54.1654 44.3523 53.834 44.7898C53.5059 45.224 53.0501 45.7543 52.4668 46.3807L50.1799 48.8267V48.9062H54.9128V50H48.4895ZM57.8411 50.0795C57.5958 50.0795 57.3854 49.9917 57.2097 49.8161C57.034 49.6404 56.9462 49.4299 56.9462 49.1847C56.9462 48.9394 57.034 48.7289 57.2097 48.5533C57.3854 48.3776 57.5958 48.2898 57.8411 48.2898C58.0864 48.2898 58.2968 48.3776 58.4725 48.5533C58.6481 48.7289 58.736 48.9394 58.736 49.1847C58.736 49.3471 58.6945 49.4962 58.6117 49.6321C58.5321 49.768 58.4244 49.8774 58.2885 49.9602C58.156 50.0398 58.0068 50.0795 57.8411 50.0795ZM63.7871 50.1392C63.0381 50.1392 62.4 49.9354 61.873 49.5277C61.3461 49.1167 60.9434 48.5218 60.665 47.7429C60.3865 46.9607 60.2473 46.0161 60.2473 44.9091C60.2473 43.8087 60.3865 42.8691 60.665 42.0902C60.9467 41.308 61.351 40.7114 61.878 40.3004C62.4083 39.8861 63.0447 39.679 63.7871 39.679C64.5295 39.679 65.1642 39.8861 65.6912 40.3004C66.2215 40.7114 66.6259 41.308 66.9043 42.0902C67.186 42.8691 67.3269 43.8087 67.3269 44.9091C67.3269 46.0161 67.1877 46.9607 66.9093 47.7429C66.6309 48.5218 66.2282 49.1167 65.7012 49.5277C65.1742 49.9354 64.5362 50.1392 63.7871 50.1392ZM63.7871 49.0455C64.5295 49.0455 65.1062 48.6875 65.5172 47.9716C65.9282 47.2557 66.1337 46.2348 66.1337 44.9091C66.1337 44.0275 66.0392 43.2768 65.8503 42.657C65.6647 42.0372 65.3962 41.5649 65.0449 41.2401C64.6969 40.9152 64.2776 40.7528 63.7871 40.7528C63.0513 40.7528 62.4763 41.1158 62.062 41.8416C61.6477 42.5642 61.4405 43.5866 61.4405 44.9091C61.4405 45.7907 61.5333 46.5398 61.7189 47.1562C61.9045 47.7727 62.1713 48.2417 62.5194 48.5632C62.8707 48.8847 63.2933 49.0455 63.7871 49.0455ZM72.5371 50.1392C71.7881 50.1392 71.15 49.9354 70.623 49.5277C70.0961 49.1167 69.6934 48.5218 69.415 47.7429C69.1365 46.9607 68.9973 46.0161 68.9973 44.9091C68.9973 43.8087 69.1365 42.8691 69.415 42.0902C69.6967 41.308 70.101 40.7114 70.628 40.3004C71.1583 39.8861 71.7947 39.679 72.5371 39.679C73.2795 39.679 73.9142 39.8861 74.4412 40.3004C74.9715 40.7114 75.3759 41.308 75.6543 42.0902C75.936 42.8691 76.0769 43.8087 76.0769 44.9091C76.0769 46.0161 75.9377 46.9607 75.6593 47.7429C75.3809 48.5218 74.9782 49.1167 74.4512 49.5277C73.9242 49.9354 73.2862 50.1392 72.5371 50.1392ZM72.5371 49.0455C73.2795 49.0455 73.8562 48.6875 74.2672 47.9716C74.6782 47.2557 74.8837 46.2348 74.8837 44.9091C74.8837 44.0275 74.7892 43.2768 74.6003 42.657C74.4147 42.0372 74.1462 41.5649 73.7949 41.2401C73.4469 40.9152 73.0276 40.7528 72.5371 40.7528C71.8013 40.7528 71.2263 41.1158 70.812 41.8416C70.3977 42.5642 70.1905 43.5866 70.1905 44.9091C70.1905 45.7907 70.2833 46.5398 70.4689 47.1562C70.6545 47.7727 70.9213 48.2417 71.2694 48.5632C71.6207 48.8847 72.0433 49.0455 72.5371 49.0455ZM81.2871 50.1392C80.5381 50.1392 79.9 49.9354 79.373 49.5277C78.8461 49.1167 78.4434 48.5218 78.165 47.7429C77.8865 46.9607 77.7473 46.0161 77.7473 44.9091C77.7473 43.8087 77.8865 42.8691 78.165 42.0902C78.4467 41.308 78.851 40.7114 79.378 40.3004C79.9083 39.8861 80.5447 39.679 81.2871 39.679C82.0295 39.679 82.6642 39.8861 83.1912 40.3004C83.7215 40.7114 84.1259 41.308 84.4043 42.0902C84.686 42.8691 84.8269 43.8087 84.8269 44.9091C84.8269 46.0161 84.6877 46.9607 84.4093 47.7429C84.1309 48.5218 83.7282 49.1167 83.2012 49.5277C82.6742 49.9354 82.0362 50.1392 81.2871 50.1392ZM81.2871 49.0455C82.0295 49.0455 82.6062 48.6875 83.0172 47.9716C83.4282 47.2557 83.6337 46.2348 83.6337 44.9091C83.6337 44.0275 83.5392 43.2768 83.3503 42.657C83.1647 42.0372 82.8962 41.5649 82.5449 41.2401C82.1969 40.9152 81.7776 40.7528 81.2871 40.7528C80.5513 40.7528 79.9763 41.1158 79.562 41.8416C79.1477 42.5642 78.9405 43.5866 78.9405 44.9091C78.9405 45.7907 79.0333 46.5398 79.2189 47.1562C79.4045 47.7727 79.6713 48.2417 80.0194 48.5632C80.3707 48.8847 80.7933 49.0455 81.2871 49.0455ZM97.5144 39.8182H98.7473V46.5597C98.7473 47.2557 98.5833 47.8771 98.2551 48.424C97.9303 48.9676 97.4713 49.3968 96.878 49.7116C96.2847 50.0232 95.5887 50.179 94.79 50.179C93.9912 50.179 93.2952 50.0232 92.7019 49.7116C92.1086 49.3968 91.6479 48.9676 91.3198 48.424C90.995 47.8771 90.8326 47.2557 90.8326 46.5597V39.8182H92.0655V46.4602C92.0655 46.9574 92.1749 47.3999 92.3936 47.7876C92.6124 48.1721 92.9239 48.4754 93.3283 48.6974C93.736 48.9162 94.2232 49.0256 94.79 49.0256C95.3567 49.0256 95.8439 48.9162 96.2516 48.6974C96.6593 48.4754 96.9708 48.1721 97.1863 47.7876C97.405 47.3999 97.5144 46.9574 97.5144 46.4602V39.8182ZM106.778 42.3636C106.718 41.8598 106.476 41.4688 106.052 41.1903C105.628 40.9119 105.107 40.7727 104.491 40.7727C104.04 40.7727 103.646 40.8456 103.308 40.9915C102.973 41.1373 102.711 41.3378 102.522 41.593C102.336 41.8482 102.244 42.1383 102.244 42.4631C102.244 42.7348 102.308 42.9685 102.438 43.1641C102.57 43.3563 102.739 43.517 102.945 43.6463C103.15 43.7723 103.366 43.8767 103.591 43.9595C103.816 44.0391 104.023 44.1037 104.212 44.1534L105.246 44.4318C105.512 44.5014 105.807 44.5975 106.131 44.7202C106.46 44.8428 106.773 45.0102 107.071 45.2223C107.373 45.4311 107.621 45.6996 107.817 46.0277C108.012 46.3558 108.11 46.7585 108.11 47.2358C108.11 47.786 107.966 48.2831 107.678 48.7273C107.393 49.1714 106.975 49.5244 106.425 49.7862C105.878 50.0481 105.213 50.179 104.431 50.179C103.702 50.179 103.071 50.0613 102.537 49.826C102.007 49.5907 101.589 49.2625 101.284 48.8416C100.982 48.4207 100.812 47.9318 100.772 47.375H102.045C102.078 47.7595 102.207 48.0777 102.433 48.3295C102.661 48.5781 102.95 48.7637 103.298 48.8864C103.649 49.0057 104.027 49.0653 104.431 49.0653C104.902 49.0653 105.324 48.9891 105.699 48.8366C106.073 48.6809 106.37 48.4654 106.589 48.1903C106.808 47.9119 106.917 47.5871 106.917 47.2159C106.917 46.8778 106.822 46.6027 106.634 46.3906C106.445 46.1785 106.196 46.0062 105.888 45.8736C105.58 45.741 105.246 45.625 104.888 45.5256L103.636 45.1676C102.84 44.9389 102.21 44.6125 101.746 44.1882C101.282 43.764 101.05 43.2088 101.05 42.5227C101.05 41.9527 101.205 41.4555 101.513 41.0312C101.824 40.6037 102.242 40.2723 102.766 40.0369C103.293 39.7983 103.881 39.679 104.531 39.679C105.187 39.679 105.77 39.7966 106.281 40.032C106.791 40.264 107.195 40.5821 107.494 40.9865C107.795 41.3909 107.954 41.8499 107.971 42.3636H106.778ZM113.279 50H110.137V39.8182H113.419C114.406 39.8182 115.251 40.022 115.954 40.4297C116.657 40.834 117.195 41.4157 117.57 42.1747C117.944 42.9304 118.132 43.8352 118.132 44.8892C118.132 45.9498 117.943 46.8629 117.565 47.6286C117.187 48.3909 116.637 48.9775 115.914 49.3885C115.192 49.7962 114.313 50 113.279 50ZM111.37 48.9062H113.2C114.042 48.9062 114.739 48.7438 115.293 48.419C115.846 48.0942 116.259 47.6319 116.531 47.032C116.802 46.4321 116.938 45.7178 116.938 44.8892C116.938 44.0672 116.804 43.3596 116.536 42.7663C116.267 42.1697 115.866 41.7124 115.333 41.3942C114.799 41.0727 114.134 40.9119 113.339 40.9119H111.37V48.9062Z" fill="#3B3B3B"/>
<path d="M11.825 10.625C11.275 10.4875 10.725 10.2125 10.3125 9.8C9.9 9.6625 9.7625 9.25 9.7625 8.975C9.7625 8.7 9.9 8.2875 10.175 8.15C10.5875 7.875 11 7.6 11.4125 7.7375C12.2375 7.7375 12.925 8.15 13.3375 8.7L14.575 7.05C14.1625 6.6375 13.75 6.3625 13.3375 6.0875C12.925 5.8125 12.375 5.675 11.825 5.675V3.75H10.175V5.675C9.4875 5.8125 8.8 6.225 8.25 6.775C7.7 7.4625 7.2875 8.2875 7.425 9.1125C7.425 9.9375 7.7 10.7625 8.25 11.3125C8.9375 12 9.9 12.4125 10.725 12.825C11.1375 12.9625 11.6875 13.2375 12.1 13.5125C12.375 13.7875 12.5125 14.2 12.5125 14.6125C12.5125 15.025 12.375 15.4375 12.1 15.85C11.6875 16.2625 11.1375 16.4 10.725 16.4C10.175 16.4 9.4875 16.2625 9.075 15.85C8.6625 15.575 8.25 15.1625 7.975 14.75L6.6 16.2625C7.0125 16.8125 7.425 17.225 7.975 17.6375C8.6625 18.05 9.4875 18.4625 10.3125 18.4625V20.25H11.825V18.1875C12.65 18.05 13.3375 17.6375 13.8875 17.0875C14.575 16.4 14.9875 15.3 14.9875 14.3375C14.9875 13.5125 14.7125 12.55 14.025 12C13.3375 11.3125 12.65 10.9 11.825 10.625ZM11 1C4.95 1 0 5.95 0 12C0 18.05 4.95 23 11 23C17.05 23 22 18.05 22 12C22 5.95 17.05 1 11 1ZM11 21.4875C5.775 21.4875 1.5125 17.225 1.5125 12C1.5125 6.775 5.775 2.5125 11 2.5125C16.225 2.5125 20.4875 6.775 20.4875 12C20.4875 17.225 16.225 21.4875 11 21.4875Z" fill="#9D9D9D"/>
</svg>
