<svg width="27" height="22" viewBox="0 0 27 22" fill="none" xmlns="http://www.w3.org/2000/svg">
<path d="M26.3653 2.53573C25.3957 2.96424 24.3541 3.25377 23.2592 3.38464C24.389 2.71037 25.2342 1.64915 25.6372 0.398995C24.5757 1.02784 23.414 1.47048 22.2025 1.70767C21.3878 0.840083 20.3087 0.26503 19.1328 0.0717948C17.9568 -0.121441 16.7498 0.0779531 15.6991 0.639019C14.6485 1.20008 13.8129 2.09143 13.3222 3.17467C12.8314 4.25791 12.713 5.47244 12.9852 6.6297C10.8344 6.52199 8.73032 5.96441 6.80953 4.99316C4.88873 4.02191 3.19416 2.65868 1.83579 0.991954C1.37133 1.79106 1.10426 2.71756 1.10426 3.70428C1.10374 4.59255 1.32306 5.46722 1.74276 6.25068C2.16245 7.03414 2.76955 7.70216 3.51018 8.19548C2.65125 8.16822 1.81126 7.93674 1.06014 7.52029V7.58978C1.06005 8.83562 1.49213 10.0431 2.28305 11.0074C3.07397 11.9717 4.17503 12.6333 5.39939 12.8801C4.60258 13.0952 3.76719 13.1268 2.95631 12.9727C3.30175 14.0447 3.97464 14.9821 4.88078 15.6537C5.78691 16.3253 6.88093 16.6975 8.00967 16.7181C6.09357 18.2184 3.72719 19.0321 1.29121 19.0286C0.8597 19.0287 0.428556 19.0035 0 18.9533C2.47266 20.539 5.35101 21.3805 8.29067 21.3772C18.2418 21.3772 23.6818 13.1569 23.6818 6.02747C23.6818 5.79585 23.676 5.56191 23.6656 5.33028C24.7237 4.56705 25.6371 3.62193 26.3629 2.53921L26.3653 2.53573Z" fill="#3B3B3B" fill-opacity="0.7"/>
</svg>
