<svg width="52" height="37" viewBox="0 0 52 37" fill="none" xmlns="http://www.w3.org/2000/svg">
<path d="M38.571 10.8374C38.571 10.8374 34.3547 24.4298 34.0102 25.5523C32.9484 17.0336 31.8766 8.51611 30.7948 0C23.6102 0 19.7687 5.25612 17.7385 10.804L12.181 25.5857C12.1485 24.5256 11.401 10.9644 11.401 10.9644C10.959 4.16704 4.901 0.0289533 0 0.0289533L5.9345 37C13.4615 36.9666 17.5197 31.7416 19.6452 26.1938C19.6452 26.1938 24.1735 14.1715 24.3598 13.6258C24.3923 14.1381 27.6098 36.9978 27.6098 36.9978C35.1672 36.9978 39.2275 32.0935 41.4115 26.7394L52 0.0311803C44.5358 0.0311803 40.6012 5.25612 38.571 10.8352V10.8374Z" fill="white"/>
</svg>
